<?xml version="1.0" encoding="utf-8"?>
<!-- Generator: Adobe Illustrator 22.1.0, SVG Export Plug-In . SVG Version: 6.00 Build 0)  -->
<svg version="1.1" id="图层_1" xmlns="http://www.w3.org/2000/svg" xmlns:xlink="http://www.w3.org/1999/xlink" x="0px" y="0px"
	 viewBox="0 0 158 19" style="enable-background:new 0 0 158 19;" xml:space="preserve">
<style type="text/css">
	.st0{fill:#FFFFFF;}
</style>
<path class="st0" d="M152.1,0c-0.5,0-1.1,0-1.6,0.1s-0.8,0.6-0.7,1.1c0.1,0.5,0.6,0.8,1.1,0.7c1.5-0.3,3.1,0.1,4.2,1.3
	s1.4,2.9,0.9,4.3c-0.2,0.5,0.1,1,0.6,1.1c0.5,0.2,1-0.1,1.1-0.6c0.7-2,0.3-4.4-1.3-6.1C155.3,0.8,153.7,0.1,152.1,0z M144,2.7
	c-1.6,0.2-3.9,1.4-5.9,3.5c-2.2,2.2-3.5,4.5-3.5,6.6c0,3.9,5,6.2,9.8,6.2c6.4,0,10.6-3.7,10.6-6.7c0-1.8-1.5-2.8-2.8-3.2
	c-0.3-0.1-0.6-0.1-0.4-0.6c0.4-0.9,0.4-1.8,0-2.3c-0.8-1.1-2.9-1-5.3,0c0,0-0.8,0.3-0.6-0.3c0.4-1.2,0.3-2.2-0.3-2.8
	C145.4,2.8,144.8,2.6,144,2.7z M152,3.2c-0.3,0-0.5,0-0.8,0.1c-0.4,0.1-0.6,0.5-0.6,0.9c0.1,0.4,0.5,0.7,0.9,0.6
	c0.5-0.1,1.1,0.1,1.4,0.5s0.5,0.9,0.3,1.4c-0.1,0.4,0.1,0.8,0.5,1c0.4,0.2,0.8-0.1,1-0.5c0.3-1,0.1-2.1-0.7-3
	C153.5,3.6,152.7,3.2,152,3.2z M145,8.4c3.3,0.1,5.8,1.8,6.1,4c0.3,2.6-2.7,4.9-6.6,5.3c-3.9,0.4-7.3-1.4-7.5-3.9
	c-0.2-2.5,2.7-4.9,6.6-5.3C144,8.3,144.5,8.3,145,8.4z M143.4,10.2c-1.4,0.1-2.7,0.9-3.3,2.2c-0.8,1.7,0,3.5,1.8,4.1
	c1.9,0.6,4.2-0.3,5-2.1s-0.2-3.5-2.1-4C144.4,10.2,143.9,10.2,143.4,10.2z M144.3,12.4c0.1,0,0.1,0,0.2,0c0.3,0.1,0.3,0.3,0.2,0.6
	c-0.1,0.2-0.4,0.3-0.7,0.3c-0.3,0-0.3-0.3-0.2-0.6C143.9,12.5,144.1,12.4,144.3,12.4z M142.5,12.9c0.2,0,0.3,0,0.5,0.1
	c0.6,0.3,0.8,1,0.4,1.6c-0.4,0.6-1.2,0.9-1.8,0.6c-0.6-0.3-0.8-1-0.4-1.6C141.5,13.2,142,12.9,142.5,12.9z"/>
</svg>
