<?xml version="1.0" encoding="utf-8"?>
<!-- Generator: Adobe Illustrator 21.0.0, SVG Export Plug-In . SVG Version: 6.00 Build 0)  -->
<svg version="1.1" id="图层_1" xmlns="http://www.w3.org/2000/svg" xmlns:xlink="http://www.w3.org/1999/xlink" x="0px" y="0px"
	 viewBox="0 0 159.4 20" style="enable-background:new 0 0 159.4 20;" xml:space="preserve">
<style type="text/css">
	.st0{fill:#FFFFFF;}
</style>
<g>
	<path class="st0" d="M49.4,6.2c-2-4.1,3.9-8.7,8.3-4.6c0,0,2.6-0.4,3.1-1.1c0,0,0.2,1.1-2,2.6c0,0,2.3-0.3,2.7-0.8
		c0,0-0.5,1.5-2.5,2.7c1.1,8.6-9.5,19.5-21.6,12.7c0,0,4.2,0.4,7-2c0,0-2.7,0-4.6-3.4c0,0,1.8,0,2.3-0.3c0,0-3.7-0.8-3.9-4.8
		c0,0,1.3,0.4,1.9,0.5c0,0-3.1-2.7-1.2-6.6C38.8,0.9,43,6.1,49.4,6.2z"/>
</g>
</svg>
