<?xml version="1.0" encoding="utf-8"?>
<!-- Generator: Adobe Illustrator 21.0.0, SVG Export Plug-In . SVG Version: 6.00 Build 0)  -->
<svg version="1.1" id="图层_1" xmlns="http://www.w3.org/2000/svg" xmlns:xlink="http://www.w3.org/1999/xlink" x="0px" y="0px"
	 viewBox="0 0 159.4 20" style="enable-background:new 0 0 159.4 20;" xml:space="preserve">
<style type="text/css">
	.st0{fill:#FFFFFF;}
</style>
<g>
	<g>
		<path class="st0" d="M102.6,0h-8.9c-3,0-5.5,2.5-5.5,5.5v8.9c0,3,2.5,5.5,5.5,5.5h8.9c3,0,5.5-2.5,5.5-5.5V5.5
			C108.2,2.5,105.7,0,102.6,0z M106.3,14.1c0,2.2-1.8,4-4,4H94c-2.2,0-4-1.8-4-4V5.8c0-2.2,1.8-4,4-4h8.4c2.2,0,4,1.8,4,4V14.1z"/>
		<path class="st0" d="M98.2,4.7C95.3,4.7,93,7.1,93,10c0,2.9,2.3,5.2,5.2,5.2s5.2-2.3,5.2-5.2C103.4,7.1,101.1,4.7,98.2,4.7z
			 M98.2,13.3c-1.9,0-3.4-1.5-3.4-3.4s1.5-3.4,3.4-3.4c1.9,0,3.4,1.5,3.4,3.4S100.1,13.3,98.2,13.3z"/>
		<circle class="st0" cx="103.9" cy="5.2" r="1.4"/>
	</g>
</g>
</svg>
