<?xml version="1.0" encoding="utf-8"?>
<!-- Generator: Adobe Illustrator 22.1.0, SVG Export Plug-In . SVG Version: 6.00 Build 0)  -->
<svg version="1.1" id="图层_1" xmlns="http://www.w3.org/2000/svg" xmlns:xlink="http://www.w3.org/1999/xlink" x="0px" y="0px"
	 viewBox="0 0 79.7 79.7" style="enable-background:new 0 0 79.7 79.7;" xml:space="preserve">
<style type="text/css">
	.st0{fill:#FFFFFF;}
</style>
<g>
	<path class="st0" d="M57.7,0H22.1C9.9,0,0,9.9,0,22.1v35.6c0,12.2,9.9,22.1,22.1,22.1h35.6c12.2,0,22.1-9.9,22.1-22.1V22.1
		C79.7,9.9,69.8,0,57.7,0z M72.4,56.6c0,8.7-7.1,15.8-15.8,15.8H23.2c-8.7,0-15.8-7.1-15.8-15.8V23.1c0-8.7,7.1-15.8,15.8-15.8h33.4
		c8.7,0,15.8,7.1,15.8,15.8V56.6z"/>
	<path class="st0" d="M39.9,18.9c-11.6,0-20.9,9.4-20.9,20.9c0,11.6,9.4,20.9,20.9,20.9s20.9-9.4,20.9-20.9
		C60.8,28.3,51.4,18.9,39.9,18.9z M39.9,53.3c-7.4,0-13.5-6-13.5-13.5s6-13.5,13.5-13.5c7.4,0,13.5,6,13.5,13.5S47.3,53.3,39.9,53.3
		z"/>
	<circle class="st0" cx="62.8" cy="20.6" r="5.5"/>
</g>
</svg>
