<?xml version="1.0" encoding="utf-8"?>
<!-- Generator: Adobe Illustrator 22.1.0, SVG Export Plug-In . SVG Version: 6.00 Build 0)  -->
<svg version="1.1" id="图层_1" xmlns="http://www.w3.org/2000/svg" xmlns:xlink="http://www.w3.org/1999/xlink" x="0px" y="0px"
	 viewBox="0 0 96.4 79.3" style="enable-background:new 0 0 96.4 79.3;" xml:space="preserve">
<style type="text/css">
	.st0{fill:#FFFFFF;}
</style>
<path class="st0" d="M48.2,24.8C40,8.5,63.9-10,81.2,6.4c0,0,10.3-1.5,12.4-4.5c0,0,0.6,4.2-7.9,10.6c0,0,9.4-1.2,10.6-3.3
	c0,0-2.1,6-10,10.9C90.9,54.2,48.2,97.9,0,70.6c0,0,17,1.5,27.9-8.2c0,0-10.9,0-18.5-13.6c0,0,7.3,0,9.1-1.2c0,0-14.8-3-15.5-19.4
	c0,0,5.2,1.5,7.6,1.8c0,0-12.4-10.9-4.8-26.4C5.8,3.6,22.4,24.2,48.2,24.8z"/>
</svg>
