<?xml version="1.0" encoding="utf-8"?>
<!-- Generator: Adobe Illustrator 22.1.0, SVG Export Plug-In . SVG Version: 6.00 Build 0)  -->
<svg version="1.1" id="图层_1" xmlns="http://www.w3.org/2000/svg" xmlns:xlink="http://www.w3.org/1999/xlink" x="0px" y="0px"
	 viewBox="0 0 98.3 79.6" style="enable-background:new 0 0 98.3 79.6;" xml:space="preserve">
<style type="text/css">
	.st0{fill:#FFFFFF;}
</style>
<path class="st0" d="M73.4,0c-2.2-0.1-4.5,0-6.7,0.5C64.6,1,63.3,3.1,63.8,5c0.5,2,2.5,3.4,4.5,3c6.3-1.3,13.1,0.5,17.7,5.6
	c4.6,5.1,5.8,12.1,3.8,18.2c-0.7,2,0.4,4.1,2.5,4.7c2,0.7,4.1-0.5,4.7-2.5c2.8-8.5,1-18.3-5.4-25.4C86.8,3.3,80.1,0.4,73.4,0
	 M39.6,11.3c-6.8,0.8-16.4,6-24.9,14.6C5.2,35.2,0,45,0,53.5c0,16.3,20.8,26.1,41.2,26.1c26.7,0,44.6-15.6,44.6-27.9
	c0-7.5-6.3-11.7-11.9-13.5c-1.4-0.4-2.4-0.7-1.7-2.5c1.6-3.9,1.8-7.5,0.1-9.8c-3.1-4.6-12.1-4.3-22-0.1c0,0-3.1,1.4-2.4-1
	c1.6-5,1.3-9.2-1.2-11.5C45.1,11.7,42.6,10.9,39.6,11.3 M72.9,13.4c-1.1,0-2.1,0-3.1,0.3c-1.7,0.4-2.9,2.2-2.6,3.9
	c0.4,1.7,2.1,2.8,3.8,2.5c2.1-0.4,4.5,0.3,6,2c1.6,1.7,2,3.9,1.3,6c-0.5,1.7,0.4,3.5,2.1,4.1c1.7,0.5,3.5-0.4,4.1-2.1
	c1.3-4.2,0.5-8.9-2.8-12.5C79.3,15,76,13.5,72.9,13.4 M43.4,35c13.6,0.5,24.5,7.3,25.4,16.6C69.9,62.4,57.5,72.4,41.3,74
	C25,75.5,10.9,68.2,9.8,57.5C8.8,46.7,21.2,36.7,37.5,35.2C39.5,34.9,41.4,34.9,43.4,35 M37,42.9c-5.9,0.5-11.4,3.9-13.9,9
	c-3.4,6.9-0.1,14.8,7.7,17.3c8.1,2.6,17.7-1.4,21-8.9C55,53,51,45.5,43,43.4C40.9,42.9,38.9,42.8,37,42.9 M40.6,51.9
	c0.3,0,0.4,0,0.7,0.1c1,0.4,1.4,1.4,0.9,2.5c-0.5,0.9-1.8,1.4-2.8,1.1c-0.9-0.4-1.3-1.4-0.8-2.5C39.1,52.3,40,51.9,40.6,51.9
	 M33.2,54.2c0.7,0,1.4,0.1,2.1,0.4c2.5,1.1,3.4,4.1,1.8,6.6c-1.6,2.5-4.8,3.7-7.5,2.6c-2.5-1.2-3.3-4.1-1.7-6.6
	C29.1,55.4,31.1,54.2,33.2,54.2"/>
</svg>
