<?xml version="1.0" encoding="utf-8"?>
<!-- Generator: Adobe Illustrator 21.0.0, SVG Export Plug-In . SVG Version: 6.00 Build 0)  -->
<svg version="1.1" id="图层_1" xmlns="http://www.w3.org/2000/svg" xmlns:xlink="http://www.w3.org/1999/xlink" x="0px" y="0px"
	 viewBox="0 0 23.1 26.5" style="enable-background:new 0 0 23.1 26.5;" xml:space="preserve">
<style type="text/css">
	.st0{fill:#FFFFFF;}
</style>
<g>
	<circle class="st0" cx="11.4" cy="16.8" r="3"/>
	<path class="st0" d="M21.6,3.4v2.8l-5.1,0V5.1c0-2.8-2.3-5.1-5.1-5.1C8.6,0,6.3,2.3,6.3,5.1v1.1l-4.8,0V3.5H0v17.9
		c0,2.8,2.3,5.1,5.1,5.1h12.8V25H5.1c-2,0-3.6-1.6-3.6-3.6V7.8l4.8,0v2h1.5v-2L15,7.7v2.1h1.5V7.7l5.1,0v13.8h-0.1
		c0,2-1.6,3.6-3.6,3.6v1.5c2.8,0,5.1-2.3,5.1-5.1h0.1v-18H21.6z M7.8,6.2V5.1c0-2,1.6-3.6,3.6-3.6S15,3.1,15,5.1v1.1L7.8,6.2z"/>
</g>
</svg>
