<?xml version="1.0" encoding="utf-8"?>
<!-- Generator: Adobe Illustrator 21.0.0, SVG Export Plug-In . SVG Version: 6.00 Build 0)  -->
<svg version="1.1" id="图层_1" xmlns="http://www.w3.org/2000/svg" xmlns:xlink="http://www.w3.org/1999/xlink" x="0px" y="0px"
	 viewBox="0 0 22 21" style="enable-background:new 0 0 22 21;" xml:space="preserve">
<path d="M21.9,7.9c-0.1-0.4-0.5-0.7-0.9-0.7l-6.8-0.1l-2.2-6.4C11.8,0.3,11.4,0,11,0S10.2,0.3,10,0.7L7.8,7.1L1,7.3
	C0.6,7.3,0.2,7.5,0,7.9c-0.1,0.4,0,0.8,0.3,1.1l5.4,4.1l-2,6.5c-0.1,0.4,0,0.8,0.4,1.1C4.4,20.9,4.6,21,4.8,21
	c0.2,0,0.4-0.1,0.6-0.2l5.6-3.9l5.6,3.9c0.3,0.2,0.8,0.2,1.2,0c0.3-0.3,0.5-0.7,0.4-1.1l-2-6.5l5.4-4.1C21.9,8.8,22.1,8.4,21.9,7.9z
	"/>
</svg>
