<?xml version="1.0" encoding="utf-8"?>
<!-- Generator: Adobe Illustrator 22.1.0, SVG Export Plug-In . SVG Version: 6.00 Build 0)  -->
<svg version="1.1" id="图层_1" xmlns="http://www.w3.org/2000/svg" xmlns:xlink="http://www.w3.org/1999/xlink" x="0px" y="0px"
	 viewBox="0 0 45.2 38.6" style="enable-background:new 0 0 45.2 38.6;" xml:space="preserve">
<style type="text/css">
	.st0{fill:none;stroke:#FFFFFF;stroke-width:2;stroke-miterlimit:10;}
	.st1{fill:#FFFFFF;stroke:#FFFFFF;stroke-width:2;stroke-miterlimit:10;}
</style>
<g>
	<polyline class="st0" points="31.3,37.6 43.1,37.6 43.1,23.8 	"/>
	<line class="st0" x1="43.1" y1="30.3" x2="43.1" y2="25.3"/>
	<path class="st0" d="M43.1,6.8"/>
	<polyline class="st0" points="1,0.1 1,37.6 12.7,37.6 	"/>
	<line class="st0" x1="1" y1="0.1" x2="1" y2="37.6"/>
	<line class="st0" x1="7.8" y1="13.5" x2="29.2" y2="13.5"/>
	<line class="st0" x1="7.8" y1="19.5" x2="22" y2="19.5"/>
	<circle class="st1" cx="40.4" cy="15.5" r="3.8"/>
	<path class="st0" d="M28.1,22.5l-9.2,9.2L19,37h5.2l9.2-9.2l9.7-9.7c0.7-0.7,1.1-1.7,1.1-2.7s-0.4-1.9-1.1-2.7
		c-0.7-0.7-1.7-1.1-2.7-1.1s-1.9,0.4-2.7,1.1"/>
	<line class="st0" x1="43.1" y1="6.4" x2="1" y2="6.1"/>
</g>
</svg>
