<?xml version="1.0" encoding="utf-8"?>
<!-- Generator: Adobe Illustrator 21.0.0, SVG Export Plug-In . SVG Version: 6.00 Build 0)  -->
<svg version="1.1" id="图层_1" xmlns="http://www.w3.org/2000/svg" xmlns:xlink="http://www.w3.org/1999/xlink" x="0px" y="0px"
	 viewBox="0 0 369 53" style="enable-background:new 0 0 369 53;" xml:space="preserve">
<style type="text/css">
	.st0{fill-rule:evenodd;clip-rule:evenodd;fill:#120A8F;}
</style>
<g>
	<path class="st0" d="M362,16c0-4,3.1-7.2,7-7.5V0H0v8.5c4.1,0,7.5,3.4,7.5,7.5c0,4.1-3.4,7.5-7.5,7.5v6c4.1,0,7.5,3.4,7.5,7.5
		c0,4.1-3.4,7.5-7.5,7.5V53h369v-8.5c-3.9-0.3-7-3.5-7-7.5c0-4,3.1-7.2,7-7.5v-6.1C365.1,23.2,362,20,362,16z"/>
</g>
</svg>
