<?xml version="1.0" encoding="utf-8"?>
<!-- Generator: Adobe Illustrator 22.1.0, SVG Export Plug-In . SVG Version: 6.00 Build 0)  -->
<svg version="1.1" id="图层_1" xmlns="http://www.w3.org/2000/svg" xmlns:xlink="http://www.w3.org/1999/xlink" x="0px" y="0px"
	 viewBox="0 0 144 51" style="enable-background:new 0 0 144 51;" xml:space="preserve">
<style type="text/css">
	.st0{fill:#D1001C;}
</style>
<g>
	<g>
		<path d="M46.8,10V6.5h1.7V4.6c-2.6,0-4.7-2.1-4.7-4.6H2C0.9,0,0,0.9,0,1.9v47.1C0,50.1,0.9,51,2,51h41.8c0-2.5,2.1-4.6,4.7-4.6
			v-1.9h-1.7v-3.4h1.7v-3.5h-1.7v-3.4h1.7v-3.5h-1.7v-3.4h1.7v-3.5h-1.7v-3.4h1.7v-3.5h-1.7v-3.4h1.7V10H46.8z"/>
	</g>
	<g>
		<path class="st0" d="M142,0H53.2c0,2.5-2.1,4.6-4.7,4.6v1.9h1.7V10h-1.7v3.5h1.7v3.4h-1.7v3.5h1.7v3.4h-1.7v3.5h1.7v3.4h-1.7v3.5
			h1.7v3.4h-1.7v3.5h1.7v3.4h-1.7v1.9c2.6,0,4.7,2.1,4.7,4.6H142c1.1,0,2-0.9,2-1.9V1.9C144,0.9,143.1,0,142,0z"/>
	</g>
</g>
</svg>
