<?xml version="1.0" encoding="utf-8"?>
<!-- Generator: Adobe Illustrator 22.1.0, SVG Export Plug-In . SVG Version: 6.00 Build 0)  -->
<svg version="1.1" id="图层_1" xmlns="http://www.w3.org/2000/svg" xmlns:xlink="http://www.w3.org/1999/xlink" x="0px" y="0px"
	 viewBox="0 0 24.7 20" style="enable-background:new 0 0 24.7 20;" xml:space="preserve">
<path d="M18.4,0c-0.5,0-1.2,0-1.7,0.1S15.9,0.7,16,1.3c0.1,0.5,0.6,0.8,1.2,0.7c1.6-0.3,3.3,0.1,4.4,1.4s1.5,3.1,0.9,4.5
	c-0.2,0.5,0.1,1.1,0.6,1.2c0.5,0.2,1.1-0.1,1.2-0.6c0.7-2.1,0.3-4.6-1.4-6.4C21.8,0.8,20.1,0.1,18.4,0z M9.9,2.8
	C8.2,3.1,5.8,4.3,3.7,6.5C1.4,8.8,0,11.3,0,13.5C0,17.6,5.3,20,10.3,20c6.7,0,11.2-3.9,11.2-7.1c0-1.9-1.6-2.9-2.9-3.4
	c-0.3-0.1-0.6-0.1-0.4-0.6c0.4-0.9,0.4-1.9,0-2.4c-0.8-1.2-3.1-1.1-5.6,0c0,0-0.8,0.3-0.6-0.3c0.4-1.3,0.3-2.3-0.3-2.9
	C11.4,2.9,10.7,2.7,9.9,2.8z M18.3,3.4c-0.3,0-0.5,0-0.8,0.1c-0.4,0.1-0.6,0.5-0.6,0.9c0.1,0.4,0.5,0.7,0.9,0.6
	c0.5-0.1,1.2,0.1,1.5,0.5s0.5,0.9,0.3,1.5c-0.1,0.4,0.1,0.8,0.5,1.1c0.4,0.2,0.8-0.1,1.1-0.5c0.3-1.1,0.1-2.2-0.7-3.2
	C19.9,3.8,19.1,3.4,18.3,3.4z M10.9,8.8c3.5,0.1,6.1,1.9,6.4,4.2c0.3,2.7-2.8,5.2-6.9,5.6c-4.1,0.4-7.7-1.5-7.9-4.1
	c-0.2-2.6,2.8-5.2,6.9-5.6C9.9,8.7,10.4,8.7,10.9,8.8z M9.3,10.7c-1.5,0.1-2.8,0.9-3.5,2.3c-0.8,1.8,0,3.7,1.9,4.3
	c2,0.6,4.4-0.3,5.3-2.2c0.8-1.9-0.2-3.7-2.2-4.2C10.3,10.7,9.8,10.7,9.3,10.7z M10.2,13.1c0.1,0,0.1,0,0.2,0
	c0.3,0.1,0.3,0.3,0.2,0.6c-0.1,0.2-0.4,0.3-0.7,0.3c-0.3,0-0.3-0.3-0.2-0.6C9.8,13.2,10,13.1,10.2,13.1z M8.3,13.6
	c0.2,0,0.3,0,0.5,0.1c0.6,0.3,0.8,1.1,0.4,1.7C8.8,16,8,16.3,7.4,16c-0.6-0.3-0.8-1.1-0.4-1.7C7.3,13.9,7.8,13.6,8.3,13.6z"/>
</svg>
