<?xml version="1.0" encoding="utf-8"?>
<!-- Generator: Adobe Illustrator 22.1.0, SVG Export Plug-In . SVG Version: 6.00 Build 0)  -->
<svg version="1.1" id="图层_1" xmlns="http://www.w3.org/2000/svg" xmlns:xlink="http://www.w3.org/1999/xlink" x="0px" y="0px"
	 viewBox="0 0 23.6 27" style="enable-background:new 0 0 23.6 27;" xml:space="preserve">
<style type="text/css">
	.st0{fill:none;}
	.st1{fill:#FFFFFF;}
</style>
<path class="st0" d="M11.6,2C9.8,2,8.3,3.5,8.3,5.3v0.9H15V5.3C15,3.5,13.5,2,11.6,2z"/>
<path class="st1" d="M21.6,3.6v2.5H17V5.3C17,2.4,14.6,0,11.6,0C8.7,0,6.3,2.4,6.3,5.3v0.9L2,6.3V3.8H0v17.9C0,24.6,2.4,27,5.3,27
	h12.8v-2H5.3C3.5,25,2,23.5,2,21.7V8.3h4.3V10h2V8.2H15V10h2V8.2h4.6v13.5c0,1.8-1.6,3.3-3.4,3.3h-0.4v2h0.4c2.9,0,5.4-2.4,5.4-5.3
	v-18h-2V3.6z M15,6.2H8.3V5.3C8.3,3.5,9.8,2,11.6,2S15,3.5,15,5.3V6.2z"/>
</svg>
