<?xml version="1.0" encoding="utf-8"?>
<!-- Generator: Adobe Illustrator 22.1.0, SVG Export Plug-In . SVG Version: 6.00 Build 0)  -->
<svg version="1.1" id="图层_1" xmlns="http://www.w3.org/2000/svg" xmlns:xlink="http://www.w3.org/1999/xlink" x="0px" y="0px"
	 viewBox="0 0 341 124.1" style="enable-background:new 0 0 341 124.1;" xml:space="preserve">
<style type="text/css">
	.st0{fill:#FFFFFF;}
</style>
<g>
	<g>
		<g>
			<path d="M105.9,18.2C94.7,7.1,79.2,0,62.1,0s-32.7,7-43.9,18.2S0,44.9,0,62.1s7,32.7,18.2,43.9s26.7,18.2,43.9,18.2
				s32.7-7,43.9-18.2s18.2-26.7,18.2-43.9S117.1,29.4,105.9,18.2z"/>
		</g>
	</g>
	<g>
		<g>
			<circle class="st0" cx="61.8" cy="69.3" r="4.6"/>
			<path class="st0" d="M61.8,75.5c-3.5,0-6.2-2.7-6.2-6.2c0-3.5,2.7-6.2,6.2-6.2c3.5,0,6.2,2.7,6.2,6.2
				C67.8,72.9,65.2,75.5,61.8,75.5z M61.8,66.2c-1.7,0-3.1,1.4-3.1,3.1c0,1.7,1.2,3.1,3.1,3.1c1.7,0,3.1-1.4,3.1-3.1
				C65,67.7,63.5,66.2,61.8,66.2z"/>
		</g>
		<g>
			<g>
				<rect x="38.3" y="42" class="st0" width="3.1" height="37"/>
			</g>
			<g>
				<rect x="48.8" y="86.3" class="st0" width="26.5" height="3.1"/>
			</g>
			<g>
				<rect x="82.7" y="41.6" class="st0" width="3.1" height="37.2"/>
			</g>
			<g>
				<path class="st0" d="M72.2,54.9h-3.1v-9.5c0-4.1-3.3-7.4-7.4-7.4s-7.4,3.3-7.4,7.4v9.5h-3.1v-9.5c0-5.8,4.8-10.5,10.5-10.5
					s10.5,4.8,10.5,10.5V54.9z"/>
			</g>
			<g>
				
					<rect x="39.7" y="47.6" transform="matrix(1 -7.486559e-03 7.486559e-03 1 -0.3664 0.466)" class="st0" width="44.7" height="3.1"/>
			</g>
		</g>
		<g>
			<path class="st0" d="M48.8,89.4c-5.8,0-10.5-4.8-10.5-10.5h3.1c0,4.1,3.3,7.4,7.4,7.4V89.4z"/>
		</g>
		<g>
			<path class="st0" d="M75.3,89.4v-3.1c4.1,0,7.4-3.3,7.4-7.4h3.1C85.8,84.8,81.1,89.4,75.3,89.4z"/>
		</g>
	</g>
</g>
<g>
	<g>
		<g>
			<path d="M322.8,18.2C311.6,7.1,296.1,0,278.9,0c-17.2,0-32.7,7-43.9,18.2s-18.2,26.7-18.2,43.9s7,32.7,18.2,43.9
				s26.7,18.2,43.9,18.2c17.2,0,32.7-7,43.9-18.2C333.9,94.8,341,79.2,341,62.1S333.9,29.4,322.8,18.2z"/>
		</g>
	</g>
	<path class="st0" d="M300,48.4c-2.3-2.3-5.4-3.7-8.7-3.7c-3.5,0-6.6,1.4-8.7,3.7c-2.3,2.3-3.7,5.4-3.7,8.9c0-3.5-1.4-6.6-3.7-8.7
		c-2.3-2.3-5.4-3.7-8.7-3.7c-3.5,0-6.6,1.4-8.7,3.7c-2.3,2.1-3.7,5.2-3.7,8.7s1.4,6.6,3.7,8.7l21.5,21.5L300.2,66
		c2.3-2.3,3.7-5.4,3.7-8.7C303.7,53.8,302.3,50.7,300,48.4z"/>
</g>
</svg>
