<?xml version="1.0" encoding="utf-8"?>
<!-- Generator: Adobe Illustrator 22.1.0, SVG Export Plug-In . SVG Version: 6.00 Build 0)  -->
<svg version="1.1" id="图层_1" xmlns="http://www.w3.org/2000/svg" xmlns:xlink="http://www.w3.org/1999/xlink" x="0px" y="0px"
	 viewBox="0 0 37 37.1" style="enable-background:new 0 0 37 37.1;" xml:space="preserve">
<style type="text/css">
	.st0{fill:#FFFFFF;}
	.st1{fill:none;stroke:#FFFFFF;stroke-width:3;stroke-miterlimit:10;}
</style>
<polyline class="st0" points="26,28.6 28.4,26.1 37,34.6 34.5,37.1 26,28.6 "/>
<path class="st0" d="M17.1,12.9c2.5,0,4.5,2,4.5,4.5s-2,4.5-4.5,4.5s-4.5-2-4.5-4.5C12.6,15,14.7,12.9,17.1,12.9L17.1,12.9z"/>
<path class="st1" d="M21.6,32.8c0,0-2.9,0-4.5,0c-8.6,0-15.6-7-15.6-15.6s7-15.6,15.6-15.6s15.6,7,15.6,15.6c0,1.6,0,4.8,0,4.8"/>
</svg>
