<?xml version="1.0" encoding="utf-8"?>
<!-- Generator: Adobe Illustrator 22.1.0, SVG Export Plug-In . SVG Version: 6.00 Build 0)  -->
<svg version="1.1" id="图层_1" xmlns="http://www.w3.org/2000/svg" xmlns:xlink="http://www.w3.org/1999/xlink" x="0px" y="0px"
	 viewBox="0 0 61 61" style="enable-background:new 0 0 61 61;" xml:space="preserve">
<style type="text/css">
	.st0{fill-rule:evenodd;clip-rule:evenodd;fill:#FFFFFF;}
	.st1{fill-rule:evenodd;clip-rule:evenodd;fill:#AF936E;}
</style>
<g>
	<path class="st0" d="M30.5,0C47.3,0,61,13.7,61,30.5C61,47.3,47.3,61,30.5,61C13.7,61,0,47.3,0,30.5C0,13.7,13.7,0,30.5,0L30.5,0z"
		/>
	<path class="st1" d="M30.5,0C47.3,0,61,13.7,61,30.5C61,47.3,47.3,61,30.5,61"/>
	<polygon points="15,27.1 15,33.6 27.6,33.6 27.6,46.2 34.1,46.2 34.1,33.6 46.7,33.6 46.7,27.1 34.1,27.1 34.1,14.5 27.6,14.5 
		27.6,27.1 15,27.1 	"/>
</g>
</svg>
