<?xml version="1.0" encoding="utf-8"?>
<!-- Generator: Adobe Illustrator 22.1.0, SVG Export Plug-In . SVG Version: 6.00 Build 0)  -->
<svg version="1.1" id="图层_1" xmlns="http://www.w3.org/2000/svg" xmlns:xlink="http://www.w3.org/1999/xlink" x="0px" y="0px"
	 viewBox="0 0 60 60" style="enable-background:new 0 0 60 60;" xml:space="preserve">
<style type="text/css">
	.st0{fill:#120A8F;}
	.st1{fill:#FFFFFF;}
</style>
<g>
	<g>
		<path class="st0" d="M51.2,8.8C45.8,3.4,38.3,0,30,0S14.2,3.4,8.8,8.8S0,21.7,0,30s3.4,15.8,8.8,21.2S21.7,60,30,60
			s15.8-3.4,21.2-8.8S60,38.3,60,30S56.6,14.2,51.2,8.8z"/>
	</g>
</g>
<path class="st1" d="M40.2,23.4c-1.1-1.1-2.6-1.8-4.2-1.8c-1.7,0-3.2,0.7-4.2,1.8C30.7,24.5,30,26,30,27.7c0-1.7-0.7-3.2-1.8-4.2
	c-1.1-1.1-2.6-1.8-4.2-1.8c-1.7,0-3.2,0.7-4.2,1.8c-1.1,1-1.8,2.5-1.8,4.2s0.7,3.2,1.8,4.2l10.4,10.4l10.1-10.4
	c1.1-1.1,1.8-2.6,1.8-4.2C42,26,41.3,24.5,40.2,23.4z"/>
</svg>
